<?xml version="1.0" encoding="UTF-8"?> <!-- Generator: Adobe Illustrator 24.1.3, SVG Export Plug-In . SVG Version: 6.00 Build 0) --> <svg xmlns="http://www.w3.org/2000/svg" xmlns:xlink="http://www.w3.org/1999/xlink" version="1.1" id="Calque_1" x="0px" y="0px" viewBox="0 0 74 51.8" style="enable-background:new 0 0 74 51.8;" xml:space="preserve"> <style type="text/css"> .st0{fill:#00A1E0;} .st1{fill:#FFFFFF;} </style> <path class="st0" d="M30.8,5.7c2.4-2.5,5.7-4,9.4-4c4.9,0,9.1,2.7,11.4,6.8C53.5,7.5,55.7,7,58,7C66.9,7,74,14.2,74,23.1 S66.8,39.2,58,39.2c-1.1,0-2.1-0.1-3.1-0.3c-2,3.6-5.8,6-10.2,6c-1.8,0-3.6-0.4-5.1-1.2c-2,4.8-6.7,8.1-12.2,8.1 c-5.7,0-10.6-3.6-12.5-8.7c-0.8,0.2-1.7,0.3-2.5,0.3C5.5,43.3,0,37.8,0,30.8c0-4.6,2.5-8.7,6.2-10.8C5.4,18.3,5,16.4,5,14.3 C5,6.4,11.4,0,19.3,0C23.8,0,28,2.1,30.8,5.7"></path> <path class="st1" d="M10.7,26.9L11,26c0.1-0.1,0.1-0.1,0.2-0.1l0.3,0.2c0.9,0.6,1.7,0.6,2,0.6c0.7,0,1.1-0.3,1.1-0.8v0 c0-0.5-0.6-0.7-1.4-0.9L13,24.9c-1-0.3-2.1-0.7-2.1-2v0c0-1.2,1-2,2.4-2h0.1c0.8,0,1.6,0.2,2.2,0.6c0.1,0,0.1,0.1,0.1,0.2l-0.3,0.8 c-0.1,0.1-0.2,0.1-0.2,0.1c-0.5-0.3-1.3-0.5-1.9-0.5c-0.6,0-1,0.3-1,0.7v0c0,0.5,0.7,0.7,1.4,0.9l0.1,0c1,0.3,2,0.7,2,2v0 c0,1.3-0.9,2.1-2.4,2.1c-0.7,0-1.5-0.1-2.2-0.5c-0.1-0.1-0.3-0.1-0.4-0.3C10.7,27,10.6,27,10.7,26.9L10.7,26.9z M32.9,26.9l0.3-0.8 c0.1-0.1,0.2-0.1,0.2-0.1l0.3,0.2c0.9,0.6,1.7,0.6,2,0.6c0.7,0,1.1-0.3,1.1-0.8v0c0-0.5-0.6-0.7-1.4-0.9l-0.2-0.1 c-1-0.3-2.1-0.7-2.1-2v0c0-1.2,1-2,2.4-2h0.1c0.8,0,1.6,0.2,2.2,0.6c0.1,0,0.1,0.1,0.1,0.2l-0.3,0.8c-0.1,0.1-0.2,0.1-0.2,0.1 c-0.5-0.3-1.3-0.5-1.9-0.5c-0.6,0-1,0.3-1,0.7v0c0,0.5,0.7,0.7,1.4,0.9l0.1,0c1,0.3,2,0.7,2,2v0c0,1.3-0.9,2.1-2.4,2.1 c-0.7,0-1.5-0.1-2.2-0.5c-0.1-0.1-0.3-0.1-0.4-0.3C32.9,27,32.9,27,32.9,26.9L32.9,26.9z M49.4,23c0.1,0.4,0.2,0.9,0.2,1.4 s-0.1,0.9-0.2,1.4c-0.1,0.4-0.3,0.8-0.6,1.1c-0.3,0.3-0.6,0.6-1,0.7c-0.4,0.2-0.9,0.3-1.4,0.3s-1-0.1-1.4-0.3s-0.7-0.4-1-0.7 s-0.5-0.7-0.6-1.1s-0.2-0.9-0.2-1.4s0.1-0.9,0.2-1.4c0.1-0.4,0.3-0.8,0.6-1.1c0.3-0.3,0.6-0.6,1-0.7c0.4-0.2,0.9-0.3,1.4-0.3 c0.5,0,1,0.1,1.4,0.3c0.4,0.2,0.7,0.4,1,0.7S49.2,22.5,49.4,23z M48.1,24.3c0-0.7-0.1-1.3-0.4-1.7S47,22,46.5,22 c-0.6,0-1,0.2-1.2,0.6s-0.4,1-0.4,1.7s0.1,1.3,0.4,1.7c0.3,0.4,0.7,0.6,1.2,0.6s1-0.2,1.2-0.6C48,25.6,48.1,25,48.1,24.3z M59.8,26.4l0.3,0.9c0,0.1-0.1,0.1-0.1,0.1c-0.5,0.2-1.1,0.3-1.8,0.3c-1.1,0-1.9-0.3-2.5-0.9s-0.9-1.5-0.9-2.5 c0-0.5,0.1-0.9,0.2-1.4s0.3-0.8,0.6-1.1c0.3-0.3,0.6-0.6,1-0.7c0.5-0.2,0.9-0.3,1.4-0.3c0.3,0,0.6,0,0.9,0.1 c0.3,0.1,0.7,0.1,0.9,0.2c0,0,0.1,0.1,0.1,0.1l-0.3,0.9c-0.1,0.1-0.1,0.1-0.1,0.1c-0.4-0.1-0.8-0.2-1.3-0.2c-0.6,0-1.1,0.2-1.4,0.6 c-0.3,0.4-0.5,0.9-0.5,1.7c0,0.8,0.2,1.4,0.5,1.7s0.8,0.5,1.4,0.5c0.3,0,0.5,0,0.7-0.1s0.4-0.1,0.6-0.2 C59.6,26.4,59.7,26.3,59.8,26.4L59.8,26.4z M66.2,22.7c0.3,1,0.1,1.8,0.1,1.9c0,0.1-0.1,0.1-0.1,0.1h-4.3c0,0.7,0.2,1.1,0.5,1.4 c0.3,0.3,0.8,0.5,1.5,0.5c1,0,1.4-0.2,1.8-0.3c0,0,0.1,0,0.2,0.1l0.3,0.8c0.1,0.1,0,0.2,0,0.2c-0.3,0.1-0.9,0.4-2.2,0.4 c-0.6,0-1.1-0.1-1.6-0.3s-0.8-0.4-1.1-0.7s-0.5-0.7-0.6-1.1c-0.1-0.4-0.2-0.9-0.2-1.4s0.1-0.9,0.2-1.4c0.1-0.4,0.3-0.8,0.6-1.1 s0.6-0.6,1-0.7c0.4-0.2,0.9-0.3,1.4-0.3c0.5,0,0.9,0.1,1.2,0.3c0.3,0.1,0.5,0.3,0.8,0.6C65.9,21.9,66.1,22.3,66.2,22.7L66.2,22.7z M62,23.6h3c0-0.4-0.1-0.7-0.3-1c-0.3-0.4-0.6-0.6-1.2-0.6c-0.6,0-1,0.2-1.2,0.6C62.1,22.9,62,23.2,62,23.6L62,23.6z M31.9,22.7 c0.3,1,0.1,1.8,0.1,1.9c0,0.1-0.1,0.1-0.1,0.1h-4.3c0,0.7,0.2,1.1,0.5,1.4c0.3,0.3,0.8,0.5,1.5,0.5c1,0,1.5-0.2,1.8-0.3 c0,0,0.1,0,0.2,0.1l0.3,0.8c0.1,0.1,0,0.2,0,0.2c-0.3,0.1-0.9,0.4-2.2,0.4c-0.6,0-1.1-0.1-1.6-0.3s-0.8-0.4-1.1-0.7 s-0.5-0.7-0.6-1.1c-0.1-0.4-0.2-0.9-0.2-1.4s0.1-0.9,0.2-1.4c0.1-0.4,0.3-0.8,0.6-1.1s0.6-0.6,1-0.7c0.4-0.2,0.9-0.3,1.4-0.3 c0.5,0,0.9,0.1,1.2,0.3c0.3,0.1,0.5,0.3,0.8,0.6C31.5,21.9,31.8,22.3,31.9,22.7L31.9,22.7z M27.6,23.6h3.1c0-0.4-0.1-0.7-0.3-1 c-0.3-0.4-0.6-0.6-1.2-0.6s-1,0.2-1.2,0.6C27.8,22.9,27.7,23.2,27.6,23.6z M20.1,23.4l0.7,0.1v-0.2c0-0.6-0.1-0.9-0.3-1 S19.8,22,19.4,22c0,0-1.1,0-1.9,0.4c0,0-0.1,0-0.1,0s-0.1,0-0.1-0.1L17,21.6c-0.1-0.1,0-0.2,0-0.2c0.4-0.3,1.3-0.5,1.3-0.5 c0.3-0.1,0.8-0.1,1.1-0.1c0.9,0,1.5,0.2,2,0.6s0.7,1,0.7,1.9v3.9c0,0,0,0.1-0.1,0.1c0,0-0.2,0.1-0.3,0.1l-1.1,0.2 c-0.4,0.1-0.9,0.1-1.3,0.1c-0.4,0-0.8,0-1.1-0.1s-0.6-0.2-0.9-0.4c-0.2-0.2-0.4-0.4-0.6-0.7c-0.1-0.3-0.2-0.6-0.2-1s0.1-0.7,0.2-1 s0.4-0.5,0.6-0.7s0.6-0.3,0.9-0.4c0.3-0.1,0.7-0.1,1.1-0.1L20.1,23.4L20.1,23.4z M18.4,26.4c0,0,0.4,0.3,1.3,0.3 c0.6,0,1.2-0.1,1.2-0.1v-2c0,0-0.5-0.1-1.2-0.1c-0.9,0-1.3,0.3-1.3,0.3C18.1,25,18,25.2,18,25.6c0,0.2,0,0.4,0.1,0.6 C18.2,26.2,18.2,26.3,18.4,26.4z M54.6,21.2c0,0.1-0.3,0.7-0.3,0.9c0,0.1-0.1,0.1-0.2,0.1c0,0-0.3-0.1-0.5-0.1c-0.2,0-0.4,0-0.6,0.1 c-0.2,0.1-0.4,0.2-0.5,0.3s-0.3,0.4-0.4,0.6s-0.1,0.7-0.1,1.1v3.2c0,0.1-0.1,0.1-0.1,0.1h-1.1c-0.1,0-0.1-0.1-0.1-0.1v-6.4 c0-0.1,0.1-0.1,0.1-0.1h1.1c0.1,0,0.1,0.1,0.1,0.1v0.5c0.2-0.2,0.5-0.4,0.7-0.5s0.6-0.2,1.1-0.2c0.3,0,0.7,0.1,0.7,0.1 C54.6,21.1,54.7,21.1,54.6,21.2L54.6,21.2z M44.1,18.2c0,0,0.1,0.1,0.1,0.1l-0.3,0.9c0,0.1-0.1,0.1-0.2,0.1c0,0-0.1,0-0.2-0.1 c-0.1,0-0.2,0-0.3,0c-0.2,0-0.3,0-0.5,0.1s-0.3,0.1-0.4,0.2S42,19.8,41.9,20c-0.2,0.5-0.2,0.9-0.2,1h1.4c0.1,0,0.1,0.1,0.1,0.1 L43,22c0,0.1-0.1,0.1-0.1,0.1h-1.4l-0.9,5.5c-0.1,0.6-0.2,1.1-0.4,1.4s-0.3,0.7-0.6,1c-0.2,0.3-0.5,0.5-0.8,0.5 c-0.3,0.1-0.7,0.2-1.1,0.2c-0.2,0-0.4,0-0.6-0.1c-0.1,0-0.3-0.1-0.4-0.1c-0.1,0-0.1-0.1-0.1-0.2l0.3-0.9c0.1-0.1,0.1-0.1,0.1-0.1 l0.2,0.1c0.1,0,0.2,0,0.3,0c0.2,0,0.4,0,0.5-0.1c0.2-0.1,0.3-0.2,0.4-0.3s0.2-0.3,0.3-0.6c0.1-0.3,0.2-0.7,0.3-1.1l1-5.4h-0.9 c-0.1,0-0.1-0.1-0.1-0.1l0.2-0.9c0-0.1,0.1-0.1,0.1-0.1h1l0.1-0.3c0.1-0.9,0.4-1.5,0.9-1.9s1.1-0.7,1.8-0.7c0.2,0,0.4,0,0.6,0.1 C43.8,18.2,43.9,18.2,44.1,18.2L44.1,18.2z M24.9,27.5c0,0.1-0.1,0.1-0.1,0.1h-1.1c-0.1,0-0.1-0.1-0.1-0.1v-9.1 c0-0.1,0.1-0.1,0.1-0.1h1.1c0.1,0,0.1,0.1,0.1,0.1V27.5z"></path> </svg> 