<?xml version="1.0" encoding="UTF-8"?> <!-- Generator: Adobe Illustrator 24.1.3, SVG Export Plug-In . SVG Version: 6.00 Build 0) --> <svg xmlns="http://www.w3.org/2000/svg" xmlns:xlink="http://www.w3.org/1999/xlink" version="1.1" id="Calque_1" x="0px" y="0px" viewBox="0 0 83.6 22.9" style="enable-background:new 0 0 83.6 22.9;" xml:space="preserve"> <style type="text/css"> .st0{fill-rule:evenodd;clip-rule:evenodd;fill:#293E40;} .st1{fill-rule:evenodd;clip-rule:evenodd;fill:#81B5A1;} </style> <path class="st0" d="M0,22.5v-22h5.6v1.8C7.4,0.8,9.6,0,11.8,0c2.9,0,5.7,1.3,7.6,3.5c1.4,1.7,2.3,3.9,2.3,7.7v11.2h-5.9V10.8 c0-2.1-0.5-3.3-1.3-4.1c-0.9-0.8-2.1-1.3-3.3-1.2C9.1,5.5,7.2,6.5,5.9,8.2v14.3L0,22.5z"></path> <path class="st1" d="M36.8,0C29.7,0,23.9,5.8,24,12.9c0,3.5,1.4,6.9,4,9.3c0.9,0.9,2.3,0.9,3.3,0.2c3.3-2.4,7.7-2.4,11,0 c1,0.8,2.4,0.7,3.4-0.2c5.1-4.9,5.3-13.1,0.4-18.2C43.5,1.5,40.3,0,36.8,0 M36.7,19.3c-1.7,0.1-3.4-0.6-4.6-1.8s-1.9-2.9-1.8-4.6 c-0.1-3.5,2.7-6.5,6.2-6.6c1.2,0,2.4,0.3,3.5,0.9c2,1.2,3.2,3.4,3.1,5.7c0,1.7-0.6,3.4-1.8,4.6S38.4,19.3,36.7,19.3"></path> <path class="st0" d="M65.9,9.9l-4.7,12.5h-4.4l-8.7-22h5.9L58.7,13l4.7-12.6h4.9L73,13l4.8-12.6h5.9l-8.7,22h-4.4L65.9,9.9z"></path> </svg> 